<svg width="382" height="100" viewBox="0 0 382 100" fill="none" xmlns="http://www.w3.org/2000/svg">
<rect width="100" height="100" rx="15" fill="#ED254E"/>
<path d="M27.8335 66L42.0002 80.1667L70.3335 51.8334" stroke="white" stroke-width="4" stroke-linecap="round" stroke-linejoin="round"/>
<path d="M41.9998 66L56.1665 51.8334M13.6665 66L27.8332 80.1667L13.6665 66Z" stroke="white" stroke-width="4" stroke-linecap="round" stroke-linejoin="round"/>
<path d="M146.272 94.408C144.928 95.048 143.072 95.784 140.704 96.616C138.336 97.384 135.808 97.768 133.12 97.768C129.792 97.768 126.912 96.872 124.48 95.08C122.112 93.288 120.928 90.376 120.928 86.344V54.952H114.304V46.792H120.928V30.28H131.488V46.792H142.432V54.952H131.488V82.984C131.616 84.776 132.16 86.088 133.12 86.92C134.144 87.688 135.392 88.072 136.864 88.072C138.336 88.072 139.744 87.816 141.088 87.304C142.432 86.792 143.424 86.376 144.064 86.056L146.272 94.408ZM175.49 97.96C170.242 97.96 165.666 96.776 161.762 94.408C157.922 91.976 154.946 88.808 152.834 84.904C150.722 80.936 149.666 76.616 149.666 71.944C149.666 67.272 150.722 62.984 152.834 59.08C155.01 55.112 158.018 51.944 161.858 49.576C165.762 47.144 170.306 45.928 175.49 45.928C180.674 45.928 185.186 47.144 189.026 49.576C192.93 51.944 195.938 55.112 198.05 59.08C200.226 62.984 201.314 67.272 201.314 71.944C201.314 76.616 200.258 80.936 198.146 84.904C196.034 88.808 193.026 91.976 189.122 94.408C185.282 96.776 180.738 97.96 175.49 97.96ZM160.514 72.04C160.514 75.24 161.186 78.12 162.53 80.68C163.874 83.24 165.666 85.256 167.906 86.728C170.146 88.2 172.674 88.936 175.49 88.936C178.242 88.936 180.738 88.2 182.978 86.728C185.282 85.192 187.106 83.144 188.45 80.584C189.794 78.024 190.466 75.144 190.466 71.944C190.466 68.744 189.794 65.864 188.45 63.304C187.106 60.744 185.282 58.728 182.978 57.256C180.738 55.72 178.242 54.952 175.49 54.952C172.738 54.952 170.21 55.72 167.906 57.256C165.666 58.728 163.874 60.776 162.53 63.4C161.186 65.96 160.514 68.84 160.514 72.04ZM210.2 75.496V65.992H238.904V75.496H210.2ZM247.918 71.944C247.918 67.144 248.878 62.792 250.798 58.888C252.782 54.92 255.47 51.784 258.862 49.48C262.254 47.112 266.158 45.928 270.574 45.928C274.414 45.928 277.87 46.92 280.942 48.904C284.078 50.888 286.51 53.352 288.238 56.296V26.92H298.798V85.096C298.798 86.312 299.022 87.176 299.47 87.688C299.918 88.2 300.654 88.488 301.678 88.552V97C299.694 97.32 298.158 97.48 297.07 97.48C295.086 97.48 293.39 96.936 291.982 95.848C290.638 94.696 289.934 93.288 289.87 91.624L289.774 87.88C287.854 91.08 285.262 93.576 281.998 95.368C278.734 97.096 275.342 97.96 271.822 97.96C267.214 97.96 263.086 96.776 259.438 94.408C255.854 92.04 253.038 88.904 250.99 85C248.942 81.032 247.918 76.68 247.918 71.944ZM288.238 78.952V65.8C287.47 63.752 286.318 61.928 284.782 60.328C283.246 58.664 281.486 57.352 279.502 56.392C277.582 55.432 275.662 54.952 273.742 54.952C270.734 54.952 268.11 55.784 265.87 57.448C263.694 59.048 261.966 61.16 260.686 63.784C259.47 66.408 258.862 69.192 258.862 72.136C258.862 75.208 259.534 78.024 260.878 80.584C262.286 83.144 264.174 85.192 266.542 86.728C268.91 88.2 271.566 88.936 274.51 88.936C276.302 88.936 278.158 88.52 280.078 87.688C282.062 86.792 283.79 85.608 285.262 84.136C286.734 82.6 287.726 80.872 288.238 78.952ZM334.771 97.96C329.523 97.96 324.947 96.776 321.043 94.408C317.203 91.976 314.227 88.808 312.115 84.904C310.003 80.936 308.947 76.616 308.947 71.944C308.947 67.272 310.003 62.984 312.115 59.08C314.291 55.112 317.299 51.944 321.139 49.576C325.043 47.144 329.587 45.928 334.771 45.928C339.955 45.928 344.467 47.144 348.307 49.576C352.211 51.944 355.219 55.112 357.331 59.08C359.507 62.984 360.595 67.272 360.595 71.944C360.595 76.616 359.539 80.936 357.427 84.904C355.315 88.808 352.307 91.976 348.403 94.408C344.563 96.776 340.019 97.96 334.771 97.96ZM319.795 72.04C319.795 75.24 320.467 78.12 321.811 80.68C323.155 83.24 324.947 85.256 327.187 86.728C329.427 88.2 331.955 88.936 334.771 88.936C337.523 88.936 340.019 88.2 342.259 86.728C344.563 85.192 346.387 83.144 347.731 80.584C349.075 78.024 349.747 75.144 349.747 71.944C349.747 68.744 349.075 65.864 347.731 63.304C346.387 60.744 344.563 58.728 342.259 57.256C340.019 55.72 337.523 54.952 334.771 54.952C332.019 54.952 329.491 55.72 327.187 57.256C324.947 58.728 323.155 60.776 321.811 63.4C320.467 65.96 319.795 68.84 319.795 72.04Z" fill="#ED254E"/>
<circle cx="375" cy="93" r="5" fill="#ED254E"/>
</svg>
